<?xml version="1.0" standalone="no"?><!DOCTYPE svg PUBLIC "-//W3C//DTD SVG 1.1//EN" "http://www.w3.org/Graphics/SVG/1.1/DTD/svg11.dtd"><svg t="1533621844423" class="icon" style="" viewBox="0 0 1024 1024" version="1.1" xmlns="http://www.w3.org/2000/svg" p-id="1211" xmlns:xlink="http://www.w3.org/1999/xlink" width="200" height="200"><defs><style type="text/css"></style></defs><path d="M801.999 347.13c0-152.773-138.191-276.63-291.783-276.63-153.593 0-287.992 123.856-287.992 276.63 0 141.658 284.775 480.848 284.775 480.848S801.999 493.522 801.999 347.13L801.999 347.13 801.999 347.13zM418.426 356.913c0-52.268 43.308-94.689 96.65-94.689 53.407 0 96.649 42.355 96.649 94.689 0 52.333-43.305 94.694-96.649 94.694C461.734 451.544 418.426 409.185 418.426 356.913L418.426 356.913 418.426 356.913zM607.621 836.249c0.825 2.466 1.267 5.05 1.267 7.575 0 26.137-43.308 47.35-96.653 47.35-53.341 0-96.649-21.213-96.649-47.35 0-2.586 0.443-5.109 1.262-7.575-58.519 10.859-97.911 31.377-97.911 54.925 0 34.909 86.55 63.127 193.299 63.127 106.755 0 193.303-28.218 193.303-63.127C705.475 867.626 666.082 847.108 607.621 836.249L607.621 836.249 607.621 836.249zM607.621 836.249" p-id="1212" fill="#666"></path></svg>