<?xml version="1.0" standalone="no"?><!DOCTYPE svg PUBLIC "-//W3C//DTD SVG 1.1//EN" "http://www.w3.org/Graphics/SVG/1.1/DTD/svg11.dtd"><svg t="1533623204630" class="icon" style="" viewBox="0 0 1129 1024" version="1.1" xmlns="http://www.w3.org/2000/svg" p-id="12036" xmlns:xlink="http://www.w3.org/1999/xlink" width="40" height="40"><defs><style type="text/css"></style></defs><path d="M828.027586 330.151724c-35.310345-82.97931-105.931034-146.537931-187.144827-171.255172-22.951724-7.062069-47.668966-10.593103-72.386207-10.593104-86.510345 0-171.255172 44.137931-224.22069 118.289655-60.027586 81.213793-82.97931 187.144828-33.544828 278.951725 40.606897 74.151724 204.8 286.013793 248.937932 346.041379 75.917241-105.931034 171.255172-201.268966 238.344827-314.262069 30.013793-51.2 42.372414-63.558621 49.434483-114.758621 5.296552-42.372414 0-86.510345-19.42069-132.413793zM564.965517 609.103448c-95.337931 0-173.02069-77.682759-173.020689-173.020689s77.682759-173.02069 173.020689-173.02069 173.02069 77.682759 173.02069 173.02069-77.682759 173.02069-173.02069 173.020689z" fill="#1296db" p-id="12037"></path><path d="M564.965517 436.082759m-82.97931 0a82.97931 82.97931 0 1 0 165.958621 0 82.97931 82.97931 0 1 0-165.958621 0Z" fill="#1296db" p-id="12038"></path></svg>