<svg xmlns="http://www.w3.org/2000/svg" class="icon" style="" viewBox="0 0 1024 1024" version="1.1" width="200" height="200"><defs><style type="text/css"></style></defs><path d="M34.155089 230.940227 9.17948 230.940227 9.17948 256.203386 9.17948 854.158012C9.17948 923.769568 65.248004 980.289737 134.081773 980.289737L927.938515 980.289737 952.914125 980.289737 952.914125 955.026579 952.914125 471.100561C952.914125 457.148105 941.732164 445.837402 927.938515 445.837402 914.144868 445.837402 902.962906 457.148105 902.962906 471.100561L902.962906 955.026579 927.938515 929.76342 134.081773 929.76342C92.797081 929.76342 59.130699 895.825847 59.130699 854.158012L59.130699 256.203386 34.155089 281.466543 598.93821 281.466543C612.731859 281.466543 623.91382 270.155842 623.91382 256.203386 623.91382 242.250928 612.731859 230.940227 598.93821 230.940227L34.155089 230.940227Z" p-id="2479"></path><path d="M437.016339 593.503789 431.876019 600.104892 431.668623 608.505214 427.984924 757.709741 427.077935 794.446421 461.312335 782.146455 605.005395 730.519447 611.980762 728.013291 616.479561 722.067243 1003.181673 210.964228 1018.529978 190.678421 998.306108 175.379305 869.49174 77.932781 849.985487 63.176536 834.913446 82.53177 437.016339 593.503789ZM839.575373 118.395018 968.389739 215.841542 963.514174 180.256619 576.81206 691.359633 588.286225 682.907428 444.593165 734.534436 477.920574 758.971151 481.604275 609.766622 476.256559 624.768047 874.153664 113.79603 839.575373 118.395018Z" p-id="2480"></path><path d="M891.217762 310.505713 920.474916 269.553252 808.309143 187.564266 779.051989 228.516725 891.217762 310.505713Z" p-id="2481"></path></svg>