<?xml version="1.0" standalone="no"?><!DOCTYPE svg PUBLIC "-//W3C//DTD SVG 1.1//EN" "http://www.w3.org/Graphics/SVG/1.1/DTD/svg11.dtd"><svg t="1591705037074" class="icon" viewBox="0 0 1024 1024" version="1.1" xmlns="http://www.w3.org/2000/svg" p-id="5136" xmlns:xlink="http://www.w3.org/1999/xlink" width="200" height="200"><defs><style type="text/css"></style></defs><path d="M516.318163 986.248378 496.50577 968.138736C481.455418 954.441395 128 629.146067 128 420.37704 128 206.200673 302.200673 32 516.318163 32 730.499238 32 904.755258 206.200673 904.755258 420.37704 904.755258 629.204944 551.184438 954.441395 536.134086 968.138736L516.318163 986.248378 516.318163 986.248378ZM516.320877 109.395348C342.886749 109.395348 201.82999 250.509422 201.82999 423.942426 201.82999 559.894774 413.53032 789.716768 516.320877 887.629926 619.167622 789.716768 830.925267 559.894774 830.925267 423.942426 830.925267 250.509422 689.753878 109.395348 516.320877 109.395348L516.320877 109.395348ZM516.318198 574.390579C422.499299 574.390579 346.194944 498.084973 346.194944 404.331216 346.194944 310.512313 422.499299 234.20796 516.318198 234.20796 610.13585 234.20796 686.440202 310.512313 686.440202 404.331216 686.440202 498.148864 610.071958 574.390579 516.318198 574.390579L516.318198 574.390579ZM516.318358 311.603308C465.160902 311.603308 423.599181 353.16503 423.599181 404.326803 423.599181 455.42919 465.160902 496.995232 516.318358 496.995232 567.479053 496.995232 609.041853 455.42919 609.041853 404.326803 609.041853 353.16503 567.425066 311.603308 516.318358 311.603308L516.318358 311.603308Z" p-id="5137"></path></svg>