<svg xmlns="http://www.w3.org/2000/svg" xmlns:xlink="http://www.w3.org/1999/xlink" viewBox="0 0 50 50"><defs><path d="M19 0C8.506 0 0 8.506 0 19s8.506 19 19 19 19-8.506 19-19S29.494 0 19 0z" id="b"/><filter x="-28.9%" y="-18.4%" width="157.9%" height="157.9%" filterUnits="objectBoundingBox" id="a"><feOffset dy="4" in="SourceAlpha" result="shadowOffsetOuter1"/><feGaussianBlur stdDeviation="3" in="shadowOffsetOuter1" result="shadowBlurOuter1"/><feComposite in="shadowBlurOuter1" in2="SourceAlpha" operator="out" result="shadowBlurOuter1"/><feColorMatrix values="0 0 0 0 0.941176471 0 0 0 0 0.145098039 0 0 0 0 0.0588235294 0 0 0 0.15 0" in="shadowBlurOuter1"/></filter></defs><g fill-rule="evenodd"><g transform="translate(6 2)"><use fill="#000" filter="url(#a)" xlink:href="#b"/><path stroke="#F0250F" stroke-width="3" d="M19 1.5C9.335 1.5 1.5 9.335 1.5 19S9.335 36.5 19 36.5 36.5 28.665 36.5 19 28.665 1.5 19 1.5z" stroke-linejoin="square" fill="#FFF"/></g><path d="M37 21c0-6.627-5.373-12-12-12s-12 5.373-12 12 5.373 12 12 12 12-5.373 12-12" fill="#F0250F"/></g></svg>