<?xml version="1.0" encoding="utf-8"?>
<!-- Generator: Adobe Illustrator 23.0.1, SVG Export Plug-In . SVG Version: 6.00 Build 0)  -->
<svg version="1.1" id="图层_1" xmlns="http://www.w3.org/2000/svg" xmlns:xlink="http://www.w3.org/1999/xlink" x="0px" y="0px"
	 viewBox="0 0 14 14" style="enable-background:new 0 0 14 14;" xml:space="preserve">
<style type="text/css">
	.st0{fill-rule:evenodd;clip-rule:evenodd;fill:#DCDCDC;}
</style>
<path class="st0" d="M7,0C3.1,0,0,3.1,0,7s3.1,7,7,7s7-3.1,7-7S10.9,0,7,0z M10.2,9.4c0.2,0.2,0.2,0.5,0,0.7
	c-0.1,0.1-0.2,0.1-0.4,0.1s-0.3,0-0.4-0.1L7.2,7.8l-2.4,2.3c-0.1,0.1-0.2,0.1-0.3,0.1c-0.1,0-0.3-0.1-0.4-0.2
	c-0.2-0.2-0.2-0.5,0-0.7l2.4-2.3L4.1,4.7C3.9,4.5,3.9,4.2,4.1,4s0.5-0.2,0.7,0l2.4,2.4l2.4-2.3c0.2-0.2,0.5-0.2,0.7,0
	c0.2,0.2,0.2,0.5,0,0.7L7.9,7.1L10.2,9.4z"/>
</svg>
