<?xml version="1.0" encoding="UTF-8"?>
<svg width="20px" height="20px" viewBox="0 0 20 20" version="1.1" xmlns="http://www.w3.org/2000/svg" xmlns:xlink="http://www.w3.org/1999/xlink">
    <!-- Generator: Sketch 52.2 (67145) - http://www.bohemiancoding.com/sketch -->
    <title>btn_close</title>
    <desc>Created with Sketch.</desc>
    <g id="商详、购物车" stroke="none" stroke-width="1" fill="none" fill-rule="evenodd">
        <g id="4_商品详情页-赠品" transform="translate(-337.000000, -305.000000)">
            <g id="弹层" transform="translate(0.000000, 287.000000)">
                <g id="关闭" transform="translate(337.000000, 18.000000)">
                    <circle id="椭圆形" fill="#F2F2F2" cx="10" cy="10" r="10"></circle>
                    <path d="M12.2803,8.7803 C11.9873,9.0733 11.5128,9.0733 11.2198,8.7803 C10.9268,8.4878 10.9268,8.0128 11.2198,7.7198 L12.7198,6.2198 C13.0128,5.9268 13.4873,5.9268 13.7803,6.2198 C14.0733,6.5123 14.0733,6.9878 13.7803,7.2803 L12.2803,8.7803 Z" id="Fill-5" fill="#8C8C8C"></path>
                    <path d="M13.7803,12.71975 C14.0733,13.01225 14.0733,13.48775 13.7803,13.78025 C13.4873,14.07325 13.0128,14.07325 12.7198,13.78025 C11.8128,12.87375 10.9068,11.96725 9.9998,11.06075 C9.0933,11.96725 8.1868,12.87375 7.2803,13.78025 C6.9873,14.07325 6.5128,14.07325 6.2198,13.78025 C5.9268,13.48775 5.9268,13.01225 6.2198,12.71975 C7.1263,11.81325 8.0328,10.90675 8.9393,10.00025 C8.0328,9.09375 7.1263,8.18725 6.2198,7.28025 C5.9268,6.98775 5.9268,6.51225 6.2198,6.21975 C6.5128,5.92675 6.9873,5.92675 7.2803,6.21975 C9.4468,8.38625 11.6138,10.55325 13.7803,12.71975" id="Fill-8" fill="#8C8C8C"></path>
                </g>
            </g>
        </g>
    </g>
</svg>