<?xml version="1.0" standalone="no"?><!DOCTYPE svg PUBLIC "-//W3C//DTD SVG 1.1//EN" "http://www.w3.org/Graphics/SVG/1.1/DTD/svg11.dtd"><svg t="1591703273406" class="icon" viewBox="0 0 1024 1024" version="1.1" xmlns="http://www.w3.org/2000/svg" p-id="2599" xmlns:xlink="http://www.w3.org/1999/xlink" width="200" height="200"><defs><style type="text/css"></style></defs><path d="M486.4 780.8c16-6.4 35.2-6.4 54.4 0l217.6 99.2-28.8-236.8c-3.2-19.2 3.2-38.4 16-51.2l163.2-176-233.6-48c-19.2-3.2-35.2-16-41.6-32l-118.4-208-118.4 208c-9.6 16-25.6 28.8-41.6 32l-233.6 48 163.2 176c12.8 12.8 19.2 32 16 51.2l-28.8 236.8 214.4-99.2z m-192 156.8c-32 16-70.4 0-86.4-32-6.4-9.6-6.4-22.4-6.4-35.2l28.8-236.8-163.2-176c-22.4-25.6-22.4-67.2 3.2-89.6 9.6-6.4 19.2-12.8 32-16l233.6-48 118.4-208c16-32 57.6-41.6 86.4-25.6 9.6 6.4 19.2 12.8 25.6 25.6l118.4 208 233.6 48c35.2 6.4 57.6 41.6 51.2 76.8-3.2 12.8-6.4 22.4-16 32l-163.2 176 28.8 236.8c3.2 35.2-22.4 67.2-57.6 70.4-12.8 0-22.4 0-35.2-6.4l-217.6-99.2-214.4 99.2z" p-id="2600"></path></svg>