<?xml version="1.0" encoding="utf-8"?>
<!-- Generator: Adobe Illustrator 23.0.1, SVG Export Plug-In . SVG Version: 6.00 Build 0)  -->
<svg version="1.1" id="图层_1" xmlns="http://www.w3.org/2000/svg" xmlns:xlink="http://www.w3.org/1999/xlink" x="0px" y="0px"
	 viewBox="0 0 22 22" style="enable-background:new 0 0 22 22;" xml:space="preserve">
<style type="text/css">
	.st0{fill-rule:evenodd;clip-rule:evenodd;fill:#E1251B;}
</style>
<path class="st0" d="M11,0C4.9,0,0,4.9,0,11s4.9,11,11,11s11-4.9,11-11S17.1,0,11,0z M17,7.8L17,7.8l-6.7,6.8c0,0,0,0,0,0
	c-0.4,0.3-0.9,0.3-1.2,0L9,14.5l-3.3-3.6c-0.2-0.2-0.2-0.5,0-0.7C6,10,6.3,10,6.5,10.2l0,0l3.2,3.5l6.6-6.6c0.2-0.2,0.5-0.2,0.7,0
	C17.2,7.3,17.2,7.6,17,7.8z"/>
</svg>
