<svg width="40" height="40" xmlns="http://www.w3.org/2000/svg"><g fill="#2E2D2D" fill-rule="evenodd"><path d="M10 35.899c1.369-.79 2.743-1.58 4.111-2.371a1.377 1.377 0 0 1 1.136-.15l.021.006a18.57 18.57 0 0 0 7.865.348 18.198 18.198 0 0 0 4.757-1.507 17.286 17.286 0 0 0 2.912-1.763 16.288 16.288 0 0 0 2.467-2.282 15.604 15.604 0 0 0 1.874-2.649c.254-.455.485-.924.69-1.403A14.457 14.457 0 0 0 37 18.5a14.416 14.416 0 0 0-1.167-5.63 15.083 15.083 0 0 0-2.564-4.052 16.092 16.092 0 0 0-2.467-2.282 16.79 16.79 0 0 0-1.412-.954 17.746 17.746 0 0 0-4.655-1.968 18.577 18.577 0 0 0-9.467 0 18.085 18.085 0 0 0-3.155 1.159c-.512.246-1.013.515-1.5.809A16.774 16.774 0 0 0 7.901 7.62a15.883 15.883 0 0 0-2.184 2.487A15.346 15.346 0 0 0 4.17 12.87a14.413 14.413 0 0 0-.886 2.852A14.162 14.162 0 0 0 3 18.5c0 .932.101 1.862.284 2.776a14.455 14.455 0 0 0 1.212 3.56 1.5 1.5 0 1 1-2.691 1.324C-2.282 17.851.85 8.412 8.399 3.434c7.336-4.837 17.307-4.554 24.314.787 7.227 5.508 9.538 15.166 4.84 23.136-4.552 7.722-13.987 11.064-22.468 9.073l-5.829 3.367a1.5 1.5 0 0 1-2.249-1.299v-7C7.007 30.67 7.672 30 8.5 30c.828 0 1.5.67 1.5 1.498v4.401"/><path d="M18.5 17h3a1.5 1.5 0 1 1 0 3h-3a1.5 1.5 0 1 1 0-3M31.5 17a1.5 1.5 0 1 1 0 3h-3a1.5 1.5 0 1 1 0-3h3M11.5 17a1.5 1.5 0 1 1 0 3h-3a1.5 1.5 0 1 1 0-3h3"/></g></svg>