<?xml version="1.0" standalone="no"?><!DOCTYPE svg PUBLIC "-//W3C//DTD SVG 1.1//EN" "http://www.w3.org/Graphics/SVG/1.1/DTD/svg11.dtd"><svg t="1591703400581" class="icon" viewBox="0 0 1024 1024" version="1.1" xmlns="http://www.w3.org/2000/svg" p-id="4231" xmlns:xlink="http://www.w3.org/1999/xlink" width="200" height="200"><defs><style type="text/css"></style></defs><path d="M629.187491 560.812729c85.830831-43.103704 144.740522-131.921565 144.740522-234.512105 0-144.853086-117.426433-262.279518-262.279518-262.279518-144.853086 0-262.279518 117.42541-262.279518 262.279518 0 102.607936 58.929134 191.438077 144.782477 234.533594-135.242194 39.572274-242.062058 145.688103-282.631032 280.499485l0 105.85591c0 6.78145 5.498224 12.279674 12.279674 12.279674L899.612527 959.469288c6.782473 0 12.279674-5.498224 12.279674-12.279674L911.892201 841.333704C871.316064 706.496739 764.464477 600.36863 629.187491 560.812729zM876.978017 925.585573l-729.617319 0 0-84.251869c0 0 79.477123-217.281675 303.239396-260.260535 0 0 16.032138-3.751441 16.032138-16.71366 0-10.197246-8.54563-15.625886-12.193717-17.479093-97.284697-25.520233-169.055301-114.040313-169.055301-219.331357 0-125.229143 101.518115-226.747257 226.747257-226.747257 125.229143 0 226.747257 101.518115 226.747257 226.747257 0 104.275925-70.394257 192.098109-166.249395 218.572064l-0.001023 0.01535c0 0-0.073678 0.014326-0.202615 0.040932-0.617054 0.168846-1.235131 0.336668-1.855254 0.50142-4.13518 1.320065-13.077853 5.458315-13.077853 16.571421 0 14.4542 16.117073 18.035772 16.117073 18.035772s202.400756 24.346501 303.367309 260.047688L876.97597 925.585573z" p-id="4232"></path></svg>