<?xml version="1.0" encoding="utf-8"?>
<!-- Generator: Adobe Illustrator 24.0.1, SVG Export Plug-In . SVG Version: 6.00 Build 0)  -->
<svg version="1.1" id="图层_1" xmlns="http://www.w3.org/2000/svg" xmlns:xlink="http://www.w3.org/1999/xlink" x="0px" y="0px"
	 viewBox="0 0 24 24" style="enable-background:new 0 0 24 24;" xml:space="preserve">
<path id="path-1_1_" d="M12.5,1.3c5.1,0,9.3,4.2,9.3,9.3c0,2.4-0.9,4.6-2.5,6.3L19,17.2l-4.9,5.1
	c-0.8,0.8-2.1,0.9-3,0.1l-5.1-5c-1.8-1.7-2.9-4.1-2.9-6.7C3.2,5.5,7.3,1.3,12.5,1.3z M12.5,7c-2,0-3.6,1.6-3.6,3.6s1.6,3.6,3.6,3.6
	s3.6-1.6,3.6-3.6S14.5,7,12.5,7z"/>
</svg>
