<?xml version="1.0" standalone="no"?><!DOCTYPE svg PUBLIC "-//W3C//DTD SVG 1.1//EN" "http://www.w3.org/Graphics/SVG/1.1/DTD/svg11.dtd"><svg t="1591940507377" class="icon" viewBox="0 0 1024 1024" version="1.1" xmlns="http://www.w3.org/2000/svg" p-id="1389" xmlns:xlink="http://www.w3.org/1999/xlink" width="200" height="200"><defs><style type="text/css"></style></defs><path d="M512 256c117.632 0 213.333333 95.701333 213.333333 213.333333v149.333334c0 13.845333 4.501333 27.328 12.8 38.4L789.333333 725.333333H234.666667l51.2-68.266666c8.298667-11.072 12.8-24.554667 12.8-38.4v-149.333334c0-117.632 95.701333-213.333333 213.333333-213.333333m0-64c-153.173333 0-277.333333 124.16-277.333333 277.333333v149.333334l-64 85.333333v42.666667c0 23.466667 19.2 42.666667 42.666666 42.666666h597.333334c23.466667 0 42.666667-19.2 42.666666-42.666666v-42.666667l-64-85.333333v-149.333334c0-153.173333-124.16-277.333333-277.333333-277.333333zM512 853.333333a64 64 0 0 1-64-64h-64c0 70.570667 57.429333 128 128 128s128-57.429333 128-128h-64a64 64 0 0 1-64 64z"  p-id="1390"></path><path d="M512 256a42.666667 42.666667 0 1 1-0.021333-85.312A42.666667 42.666667 0 0 1 512 256h97.621333A105.962667 105.962667 0 0 0 618.666667 213.333333c0-58.816-47.850667-106.666667-106.666667-106.666666s-106.666667 47.850667-106.666667 106.666666c0 15.189333 3.306667 29.568 9.045334 42.666667H512z" p-id="1391"></path></svg>