<?xml version="1.0" encoding="utf-8"?>
<!-- Generator: Adobe Illustrator 23.0.1, SVG Export Plug-In . SVG Version: 6.00 Build 0)  -->
<svg version="1.1" id="图层_1" xmlns="http://www.w3.org/2000/svg" xmlns:xlink="http://www.w3.org/1999/xlink" x="0px" y="0px"
	 viewBox="0 0 22 22" style="enable-background:new 0 0 22 22;" xml:space="preserve">
<style type="text/css">
	.st0{fill-rule:evenodd;clip-rule:evenodd;fill:#E1251B;}
</style>
<path class="st0" d="M6.4,8.7h1.3V14H5.4c-0.1,0-0.2-0.1-0.2-0.2V12h1.1c0.3,0,0.5-0.2,0.5-0.5c0-0.3-0.2-0.5-0.5-0.5H5.2v-0.5l0,0
	c0,0,0,0,0-0.1L6.4,8.7z M15.9,7.3h-7c-0.1,0-0.2,0.1-0.2,0.2V14h7.2c0.1,0,0.2-0.1,0.2-0.1l0,0V7.5C16.1,7.4,16,7.3,15.9,7.3z
	 M22,11c0,6.1-4.9,11-11,11S0,17.1,0,11S4.9,0,11,0S22,4.9,22,11z M17.1,7.5c0-0.7-0.5-1.2-1.2-1.2h-7l-0.1,0
	C8.2,6.3,7.7,6.9,7.7,7.5v0.2H6.1c-0.2,0-0.3,0.1-0.4,0.2L4.4,9.8c-0.1,0.2-0.2,0.4-0.2,0.7v3.3c0,0.7,0.5,1.2,1.2,1.2l1.4,0
	c0.1,0.5,0.5,0.9,1,0.9c0.5,0,1-0.4,1-0.9h4.2c0.1,0.5,0.5,0.9,1,0.9c0.5,0,1-0.4,1-0.9l0.7,0c0.7,0,1.2-0.5,1.2-1.2V7.5z"/>
</svg>
