<?xml version="1.0" standalone="no"?><!DOCTYPE svg PUBLIC "-//W3C//DTD SVG 1.1//EN" "http://www.w3.org/Graphics/SVG/1.1/DTD/svg11.dtd"><svg t="1593502023298" class="icon" viewBox="0 0 1024 1024" version="1.1" xmlns="http://www.w3.org/2000/svg" p-id="949" xmlns:xlink="http://www.w3.org/1999/xlink" width="32" height="32"><defs><style type="text/css"></style></defs><path d="M297.890909 404.945455h60.509091V651.636364H251.345455c-4.654545 0-9.309091-4.654545-9.309091-9.309091V558.545455h51.2c13.963636 0 23.272727-9.309091 23.272727-23.272728s-9.309091-23.272727-23.272727-23.272727H242.036364v-23.272727-4.654546l55.854545-79.127272z m442.181818-65.163637h-325.818182c-4.654545 0-9.309091 4.654545-9.30909 9.309091V651.636364h335.127272c4.654545 0 9.309091-4.654545 9.309091-4.654546V349.090909c0-4.654545-4.654545-9.309091-9.309091-9.309091zM1024 512c0 283.927273-228.072727 512-512 512S0 795.927273 0 512 228.072727 0 512 0s512 228.072727 512 512z m-228.072727-162.909091c0-32.581818-23.272727-55.854545-55.854546-55.854545H409.6c-27.927273 0-51.2 27.927273-51.2 55.854545v9.309091H283.927273c-9.309091 0-13.963636 4.654545-18.618182 9.309091L204.8 456.145455c-4.654545 9.309091-9.309091 18.618182-9.309091 32.581818v153.6c0 32.581818 23.272727 55.854545 55.854546 55.854545h65.163636c4.654545 23.272727 23.272727 41.890909 46.545454 41.890909s46.545455-18.618182 46.545455-41.890909H605.090909c4.654545 23.272727 23.272727 41.890909 46.545455 41.890909s46.545455-18.618182 46.545454-41.890909h32.581818c32.581818 0 55.854545-23.272727 55.854546-55.854545V349.090909z" p-id="950" fill="#E6E6E6"></path></svg>