<?xml version="1.0" encoding="UTF-8"?>
<svg width="20px" height="19px" viewBox="0 0 20 19" version="1.1" xmlns="http://www.w3.org/2000/svg" xmlns:xlink="http://www.w3.org/1999/xlink">
    <!-- Generator: Sketch 63.1 (92452) - https://sketch.com -->
    <title>ic_scan</title>
    <desc>Created with Sketch.</desc>
    <defs>
        <path d="M20.25,15.1456665 C20.7159903,15.1456665 21.0992644,15.4998163 21.1453534,15.9536467 L21.15,16.0456665 L21.15,18.8333333 C21.15,20.3120312 19.989947,21.5197842 18.5302681,21.596165 L18.3833333,21.6 L15.5816243,21.6 C15.0845681,21.6 14.6816243,21.1970563 14.6816243,20.7 C14.6816243,20.2340097 15.0357741,19.8507356 15.4896046,19.8046466 L15.5816243,19.8 L18.3833333,19.8 C18.8838414,19.8 19.2955062,19.4196169 19.3450092,18.9321694 L19.35,18.8333333 L19.35,16.0456665 C19.35,15.5486102 19.7529437,15.1456665 20.25,15.1456665 Z M3.45,15.1403687 C3.91599026,15.1403687 4.29926441,15.4945184 4.3453534,15.9483489 L4.35,16.0403687 L4.35,18.8333333 C4.35,19.3338414 4.73038307,19.7455062 5.21783062,19.7950092 L5.31666667,19.8 L8.11420288,19.8 C8.61125916,19.8 9.01420288,20.2029437 9.01420288,20.7 C9.01420288,21.1659903 8.66005312,21.5492644 8.20622265,21.5953534 L8.11420288,21.6 L5.31666667,21.6 C3.83796879,21.6 2.63021581,20.439947 2.55383498,18.9802681 L2.55,18.8333333 L2.55,16.0403687 C2.55,15.5433124 2.95294373,15.1403687 3.45,15.1403687 Z M20.49,11.1 C21.1193795,11.1 21.45,11.5029437 21.45,12 C21.45,12.4970563 21.1193795,12.9 20.49,12.9 L20.49,12.9 L3.21,12.9 C2.58062049,12.9 2.25,12.4970563 2.25,12 C2.25,11.5029437 2.58062049,11.1 3.21,11.1 L3.21,11.1 Z M8.10837809,3 C8.60543437,3 9.00837809,3.40294373 9.00837809,3.9 C9.00837809,4.36599026 8.65422833,4.74926441 8.20039786,4.7953534 L8.10837809,4.8 L5.31666667,4.8 C4.81615861,4.8 4.40449378,5.18038307 4.35499079,5.66783062 L4.35,5.76666667 L4.35,8.58227539 C4.35,9.07933167 3.94705627,9.48227539 3.45,9.48227539 C2.98400974,9.48227539 2.60073559,9.12812563 2.5546466,8.67429516 L2.55,8.58227539 L2.55,5.76666667 C2.55,4.28796879 3.71005304,3.08021581 5.1697319,3.00383498 L5.31666667,3 L8.10837809,3 Z M18.3833333,3 C19.8620312,3 21.0697842,4.16005304 21.146165,5.6197319 L21.15,5.76666667 L21.15,8.57484131 C21.15,9.07189758 20.7470563,9.47484131 20.25,9.47484131 C19.7840097,9.47484131 19.4007356,9.12069155 19.3546466,8.66686108 L19.35,8.57484131 L19.35,5.76666667 C19.35,5.26615861 18.9696169,4.85449378 18.4821694,4.80499079 L18.3833333,4.8 L15.5828206,4.8 C15.0857644,4.8 14.6828206,4.39705627 14.6828206,3.9 C14.6828206,3.43400974 15.0369704,3.05073559 15.4908009,3.0046466 L15.5828206,3 L18.3833333,3 Z" id="path-1"></path>
    </defs>
    <g id="UI-KIT" stroke="none" stroke-width="1" fill="none" fill-rule="evenodd">
        <g id="Data-Entry-/Searchbar-" transform="translate(-322.000000, -147.000000)">
            <g id="search-Bar_basic" transform="translate(0.000000, 128.000000)">
                <g id="ic_scan" transform="translate(320.000000, 16.000000)">
                    <mask id="mask-2" fill="white">
                        <use xlink:href="#path-1"></use>
                    </mask>
                    <use fill="#646464" fill-rule="nonzero" xlink:href="#path-1"></use>
                    <g id="color_black2-100" mask="url(#mask-2)" fill="#646464" fill-rule="evenodd">
                        <g transform="translate(-5.250000, -4.500000)" id="矩形备份">
                            <rect x="0" y="0" width="30.75" height="30.75"></rect>
                        </g>
                    </g>
                </g>
            </g>
        </g>
    </g>
</svg>