<?xml version="1.0" encoding="utf-8"?>
<!-- Generator: Adobe Illustrator 23.0.1, SVG Export Plug-In . SVG Version: 6.00 Build 0)  -->
<svg version="1.1" id="图层_1" xmlns="http://www.w3.org/2000/svg" xmlns:xlink="http://www.w3.org/1999/xlink" x="0px" y="0px"
	 viewBox="0 0 20 20" style="enable-background:new 0 0 20 20;" xml:space="preserve">
<style type="text/css">
	.st0{fill:#646464;}
</style>
<path class="st0" d="M2.8,9h14.4C17.7,9,18,9.3,18,9.8s-0.3,0.8-0.8,0.8H2.8C2.3,10.5,2,10.2,2,9.8S2.3,9,2.8,9z M2,7.3
	c0.5,0,0.9-0.4,0.9-0.9V3.8c0-0.5,0.4-0.9,0.9-0.9h2.7c0.5,0,0.9-0.4,0.9-0.9S6.9,1.1,6.4,1.1H3.8c-1.5,0-2.6,1.2-2.6,2.6v2.7
	C1.1,6.9,1.5,7.3,2,7.3z M16.2,1.1h-2.7c-0.5,0-0.9,0.4-0.9,0.9s0.4,0.9,0.9,0.9h2.7c0.5,0,0.9,0.4,0.9,0.9v2.7
	c0,0.5,0.4,0.9,0.9,0.9s0.9-0.4,0.9-0.9V3.8C18.9,2.3,17.7,1.1,16.2,1.1z M6.4,17.1H3.8c-0.5,0-0.9-0.4-0.9-0.9v-2.7
	c0-0.5-0.4-0.9-0.9-0.9s-0.9,0.4-0.9,0.9v2.7c0,1.5,1.2,2.6,2.6,2.6h2.7c0.5,0,0.9-0.4,0.9-0.9S6.9,17.1,6.4,17.1z M18,12.7
	c-0.5,0-0.9,0.4-0.9,0.9v2.7c0,0.5-0.4,0.9-0.9,0.9h-2.7c-0.5,0-0.9,0.4-0.9,0.9s0.4,0.9,0.9,0.9h2.7c1.5,0,2.6-1.2,2.6-2.6v-2.7
	C18.9,13.1,18.5,12.7,18,12.7z"/>
</svg>
