<?xml version="1.0" encoding="utf-8"?>
<!-- Generator: Adobe Illustrator 23.0.1, SVG Export Plug-In . SVG Version: 6.00 Build 0)  -->
<svg version="1.1" id="图层_1" xmlns="http://www.w3.org/2000/svg" xmlns:xlink="http://www.w3.org/1999/xlink" x="0px" y="0px"
	 viewBox="0 0 20 20" style="enable-background:new 0 0 20 20;" xml:space="preserve">
<style type="text/css">
	.st0{fill:#CBCBCB;}
</style>
<path class="st0" d="M18.2,16.2l-2.1-2.1C16,14,15.9,14,15.9,13.9c0.9-1.3,1.4-2.8,1.4-4.4c0-4.3-3.5-7.8-7.8-7.8S1.8,5.2,1.8,9.5
	s3.5,7.8,7.8,7.8c1.9,0,3.7-0.7,5.1-1.9c0,0,0,0.1,0.1,0.1l2.1,2.1c0.2,0.2,0.5,0.3,0.7,0.3s0.5-0.1,0.7-0.3
	C18.6,17.2,18.6,16.6,18.2,16.2z M9.5,15.8c-3.4,0-6.2-2.8-6.2-6.2s2.8-6.2,6.2-6.2s6.2,2.8,6.2,6.2S12.9,15.8,9.5,15.8z"/>
</svg>
