<svg width="40" height="40" xmlns="http://www.w3.org/2000/svg"><g fill="#2E2D2D" fill-rule="evenodd"><path d="M24.495 34.027a1.5 1.5 0 0 1 1.03 2.818c-8.971 3.28-18.983-.611-23.385-9.088C-2.262 19.28.313 8.852 8.156 3.4 16-2.053 26.671-.834 33.083 6.246c6.412 7.08 6.571 17.82.371 25.087l6.107 6.107a1.501 1.501 0 0 1-2.122 2.121l-7.125-7.126a1.501 1.501 0 0 1 0-2.121c5.773-5.773 6.273-14.967 1.161-21.333-5.113-6.365-14.198-7.86-21.08-3.469-6.883 4.392-9.354 13.262-5.736 20.58 3.619 7.319 12.168 10.739 19.836 7.935"/><path d="M27.272 15.453a1.5 1.5 0 0 0 2.757-1.182 12 12 0 0 0-6.299-6.299 1.5 1.5 0 0 0-1.182 2.757 9 9 0 0 1 4.821 4.959"/></g></svg>