<?xml version="1.0" encoding="utf-8"?>
<!-- Generator: Adobe Illustrator 24.0.1, SVG Export Plug-In . SVG Version: 6.00 Build 0)  -->
<svg version="1.1" id="图层_1" xmlns="http://www.w3.org/2000/svg" xmlns:xlink="http://www.w3.org/1999/xlink" x="0px" y="0px"
	 viewBox="0 0 24 24" style="enable-background:new 0 0 24 24;" xml:space="preserve">
<path id="path-1_1_" d="M16.8,3c0.4,0,0.9,0.3,1.1,0.6l4.6,7.8c0.2,0.3,0.2,0.9,0,1.2l-4.6,7.8
	c-0.2,0.3-0.7,0.6-1.1,0.6H7.5c-0.4,0-0.9-0.3-1.1-0.6l-4.6-7.8c-0.2-0.3-0.2-0.9,0-1.2l4.6-7.8C6.6,3.3,7.1,3,7.5,3H16.8z
	 M12.2,8.2c-2.1,0-3.8,1.7-3.8,3.8s1.7,3.8,3.8,3.8S16,14.1,16,12S14.2,8.2,12.2,8.2z"/>
</svg>
