<svg width="40" height="40" xmlns="http://www.w3.org/2000/svg"><g fill="#2E2D2D" fill-rule="evenodd"><path d="M31 40H6a6 6 0 0 1-6-6V11a6 6 0 0 1 6-6h9.5a1.5 1.5 0 0 1 0 3H6a3 3 0 0 0-3 3v23a3 3 0 0 0 3 3h25a3 3 0 0 0 3-3v-9.5a1.5 1.5 0 0 1 3 0V34a6 6 0 0 1-6 6"/><path d="M39.435 5.313l-.024-.004a1.5 1.5 0 0 1 .15 2.252l-5 5a1.502 1.502 0 0 1-2.122 0 1.502 1.502 0 0 1 0-2.122l2.397-2.397C26.474 8.652 20 15.615 20 24v2.5a1.5 1.5 0 0 1-3 0V24c0-10.07 7.856-18.391 17.91-18.97-.824-.822-1.647-1.646-2.471-2.47a1.502 1.502 0 0 1 0-2.121 1.502 1.502 0 0 1 2.122 0l5 5"/></g></svg>