<?xml version="1.0" encoding="utf-8"?>
<!-- Generator: Adobe Illustrator 24.0.1, SVG Export Plug-In . SVG Version: 6.00 Build 0)  -->
<svg version="1.1" id="图层_1" xmlns="http://www.w3.org/2000/svg" xmlns:xlink="http://www.w3.org/1999/xlink" x="0px" y="0px"
	 viewBox="0 0 24 24" style="enable-background:new 0 0 24 24;" xml:space="preserve">
<path d="M17.3,22.4c0.7,0.4,1.6,0.1,2-0.6c0.2-0.3,0.2-0.6,0.1-0.9l-1-5.7l4.2-4c0.6-0.6,0.6-1.5,0-2.1
	c-0.2-0.2-0.5-0.4-0.9-0.4L16,7.6l-2.6-5.2c-0.4-0.7-1.3-1-2-0.7c-0.3,0.1-0.5,0.4-0.7,0.7L8.2,7.6L2.4,8.5C1.5,8.6,1,9.3,1.1,10.2
	c0,0.3,0.2,0.6,0.4,0.9l4.2,4l-1,5.7c-0.1,0.8,0.4,1.6,1.2,1.7c0.3,0.1,0.7,0,0.9-0.1l5.2-2.7L17.3,22.4z"/>
</svg>
