<?xml version="1.0" standalone="no"?><!DOCTYPE svg PUBLIC "-//W3C//DTD SVG 1.1//EN" "http://www.w3.org/Graphics/SVG/1.1/DTD/svg11.dtd"><svg t="1591705145600" class="icon" viewBox="0 0 1024 1024" version="1.1" xmlns="http://www.w3.org/2000/svg" p-id="9235" xmlns:xlink="http://www.w3.org/1999/xlink" width="200" height="200"><defs><style type="text/css"></style></defs><path d="M855.064 975.279H168.755c-51.197 0-92.85-41.652-92.85-92.85V147.216c0-51.198 41.652-92.85 92.85-92.85h686.31c51.198 0 92.85 41.652 92.85 92.85V882.43c0 51.197-41.652 92.849-92.85 92.849zM168.755 112.58c-19.098 0-34.635 15.538-34.635 34.635V882.43c0 19.097 15.537 34.634 34.635 34.634h686.31c19.097 0 34.635-15.537 34.635-34.634V147.215c0-19.097-15.538-34.635-34.636-34.635H168.755z" p-id="9236"></path><path d="M281.626 377.463h-1.738c-16.075 0-29.107-13.032-29.107-29.107s13.032-29.107 29.107-29.107h1.738c16.075 0 29.107 13.032 29.107 29.107s-13.032 29.107-29.107 29.107zM735.932 377.463H387.006c-16.075 0-29.107-13.032-29.107-29.107s13.032-29.107 29.107-29.107H735.93c16.077 0 29.108 13.032 29.108 29.107s-13.031 29.107-29.107 29.107zM735.932 540.481H387.006c-16.075 0-29.107-13.032-29.107-29.107s13.032-29.108 29.107-29.108H735.93c16.077 0 29.108 13.032 29.108 29.108s-13.031 29.107-29.107 29.107zM735.932 697.677H387.006c-16.075 0-29.107-13.032-29.107-29.107s13.032-29.108 29.107-29.108H735.93c16.077 0 29.108 13.032 29.108 29.108s-13.031 29.107-29.107 29.107zM281.626 535.824h-1.738c-16.075 0-29.107-13.032-29.107-29.108s13.032-29.107 29.107-29.107h1.738c16.075 0 29.107 13.032 29.107 29.107s-13.032 29.108-29.107 29.108zM281.626 694.183h-1.738c-16.075 0-29.107-13.032-29.107-29.107s13.032-29.108 29.107-29.108h1.738c16.075 0 29.107 13.032 29.107 29.108s-13.032 29.107-29.107 29.107z" p-id="9237"></path></svg>