<?xml version="1.0" encoding="UTF-8"?>
<svg width="13px" height="13px" viewBox="0 0 13 13" version="1.1" xmlns="http://www.w3.org/2000/svg" xmlns:xlink="http://www.w3.org/1999/xlink">
    <!-- Generator: Sketch 52.2 (67145) - http://www.bohemiancoding.com/sketch -->
    <title>Fill 3</title>
    <desc>Created with Sketch.</desc>
    <g id="分类" stroke="none" stroke-width="1" fill="none" fill-rule="evenodd">
        <g id="4-排序状态" transform="translate(-18.000000, -296.000000)" fill="#F2270C">
            <g id="分组-2-copy" transform="translate(0.000000, 222.000000)">
                <g id="Fill-3" transform="translate(18.000000, 74.000000)">
                    <path d="M3.8235773,10.236 C2.6030773,9.113 1.3830773,7.9905 0.162577302,6.868 C-0.172922698,6.5595 0.0455773022,6 0.501077302,6 L1.0030773,6 C1.7555773,6 2.4800773,6.2825 3.0335773,6.792 C3.5180773,7.2375 4.0025773,7.6835 4.4870773,8.129 C5.9855773,6.6965 7.4835773,5.264 8.9820773,3.8315 C9.5400773,3.298 10.2825773,3 11.0545773,3 L11.4990773,3 C11.9500773,3 12.1705773,3.5495 11.8445773,3.861 C9.6265773,5.982 7.4090773,8.102 5.1910773,10.223 C4.7860773,10.6105 4.1415773,10.589 3.7625773,10.175 C3.7620773,10.1765 3.7615773,10.1775 3.7610773,10.1785" id="Fill-2"></path>
                </g>
            </g>
        </g>
    </g>
</svg>