<svg xmlns="http://www.w3.org/2000/svg" viewBox="0 0 35 39"><path d="M3.63 5h22.363c5.789 0 9.278 4.972 8.312 10.342L32.6 24.037c-.56 3.69-4.112 5.893-7.9 5.893H5.27C4.513 29.93 4 29.274 4 28.52c0-.756.615-1.52 1.37-1.52H24.7c2.58 0 4.874-1.242 5.203-3.408l1.713-8.732C32.293 11.094 29.999 8 25.993 8H2.553C1.748 8 1.108 7.772.99 7.026L.017 1.581a1.367 1.367 0 1 1 2.699-.428L3.63 5zM3.5 16h12a1.5 1.5 0 0 1 1.5 1.5v.047a1.5 1.5 0 0 1-1.5 1.5h-12a1.5 1.5 0 0 1-1.5-1.5V17.5A1.5 1.5 0 0 1 3.5 16zM7 39a3 3 0 1 1 0-6 3 3 0 0 1 0 6zm20 0a3 3 0 1 1 0-6 3 3 0 0 1 0 6z" fill-rule="evenodd"/></svg>