<?xml version="1.0" encoding="UTF-8"?>
<svg width="48px" height="48px" viewBox="0 0 48 48" version="1.1" xmlns="http://www.w3.org/2000/svg" xmlns:xlink="http://www.w3.org/1999/xlink">
    <!-- Generator: Sketch 63 (92445) - https://sketch.com -->
    <title>ic_close@1x</title>
    <desc>Created with Sketch.</desc>
    <g id="Page-1" stroke="none" stroke-width="1" fill="none" fill-rule="evenodd">
        <g id="弹框-带关闭按钮的" transform="translate(-351.000000, -1009.000000)">
            <g id="编组-3" transform="translate(87.000000, 278.000000)">
                <g id="ic_close" transform="translate(264.000000, 731.000000)">
                    <g id="编组-15">
                        <circle id="椭圆形" stroke="#FFFFFF" stroke-width="3" cx="24" cy="24" r="22.5"></circle>
                        <path d="M29.4364935,16.4381608 C30.0222799,15.8523744 30.9720274,15.8523744 31.5578138,16.4381608 L31.5578138,16.4381608 C32.1476256,17.0279726 32.1476256,17.9777201 31.5618392,18.5635065 L31.5618392,18.5635065 L26.125,24 L31.5618392,29.4364935 C32.1476256,30.0222799 32.1476256,30.9720274 31.5618392,31.5578138 L31.5578138,31.5618392 C30.9720274,32.1476256 30.0222799,32.1476256 29.4364935,31.5618392 L24,26.125 L18.5635065,31.5618392 C18.0143317,32.111014 17.1452693,32.1453374 16.5561086,31.6648094 L16.4421862,31.5618392 C15.8523744,30.9720274 15.8523744,30.0222799 16.4381608,29.4364935 L16.4381608,29.4364935 L21.875,24 L16.4381608,18.5635065 C15.8523744,17.9777201 15.8523744,17.0279726 16.4381608,16.4421862 L16.4421862,16.4381608 C17.0279726,15.8523744 17.9777201,15.8523744 18.5635065,16.4381608 L24,21.875 Z" id="形状结合" fill="#FFFFFF"></path>
                    </g>
                </g>
            </g>
        </g>
    </g>
</svg>